<svg xmlns="http://www.w3.org/2000/svg" viewBox="0 0 72.05 44.82"><defs><style>.cls-1{fill:#fff;stroke:#000;stroke-miterlimit:10;}</style></defs><title>Recurso 2</title><g id="Capa_2" data-name="Capa 2"><g id="Eyes1"><path class="cls-1" d="M.5,31.51a12.71,12.71,0,0,0,8,12,12.51,12.51,0,0,0,15-5c3.81-6.19,1-14.32-4-17C13.76,18.39,3.91,21.89.5,31.51Z"/><path class="cls-1" d="M56.5.51c-6.16-.22-10.51,6.25-11,7-5.72,8.77-2.24,22.34,6,29,.83.67,8.17,6.6,14,4,6.78-3,6.89-15.53,5-23C69.07,11.85,64.41.78,56.5.51Z"/></g></g></svg>