<svg xmlns="http://www.w3.org/2000/svg" viewBox="0 0 779.22 236.73">
    <defs>
        <style>
            .cls-1 {
                fill: #4d4d4d;
            }
            .cls-2 {
                fill: #333;
            }
            .cls-3 {
                fill: #999;
            }
        </style>
    </defs>
    <title>rocks</title>
    <g id="Capa_2" data-name="Capa 2">
        <g id="Rock"><path
            class="cls-1"
            d="M585.06,99.43,589.37,70c5.33-27.32,10.77-26.47,23-32l56-28c9.88-5,22.55-7.7,33-4l60,20c13.55,4.79,18.29,16.63,13,30l-2.91,11.13a25.36,25.36,0,0,0,3,24.12h0a25.36,25.36,0,0,1-17.52,40l-52.72,6.46a25.36,25.36,0,0,1-5.65.06l-88.68-9A27.66,27.66,0,0,1,585.06,99.43Z"/><path
            class="cls-2"
            d="M599.51,88.71l74.22-50.42a5.5,5.5,0,0,1,4.12-.87l68.92,12.92c7.5,1.41,12.07,9.51,9.66,17.13l-5,15.8a6.34,6.34,0,0,0,.61,5.17l19.44,32.08a6.29,6.29,0,0,1,.9,3.26h0a6,6,0,0,1-4.91,6l-72.05,11.12a5.45,5.45,0,0,1-1.64,0L603,130.63a12.42,12.42,0,0,1-8.82-5.27h0c-.41-.59-.87-1.14-1.33-1.68a21,21,0,0,1-4.58-17.09l0-.17A26.87,26.87,0,0,1,599.51,88.71Z"/><polygon
            class="cls-3"
            points="585.21 96.99 588.37 81 592.37 59 602.37 44 623.37 38 664.92 17.32 685.37 7 694.37 7 718.37 11 765.37 29 772.37 37 774.37 48 768.37 69 768.94 80.39 769.37 89 777.37 95 773.37 89 769.73 77.68 775.37 56 778.37 46 775.37 37 769.37 27 735.87 14.5 698.81 1.62 680.37 0 633.45 24 602.62 40.43 592.37 51 587.18 67.09 585.21 96.99"/><path
            class="cls-1"
            d="M194.17,107.43l-1.89-29.81A39.77,39.77,0,0,0,170.66,44.7L108.32,12.89a40.42,40.42,0,0,0-31.84-2.1L18.66,31.23A25.36,25.36,0,0,0,3.54,64.47L7.76,75.13a25.36,25.36,0,0,1-3,24.12h0a25.36,25.36,0,0,0,17.52,40L75,145.65a25.36,25.36,0,0,0,5.65.06l88.68-9A27.66,27.66,0,0,0,194.17,107.43Z"/><path
            class="cls-2"
            d="M179.72,96.71,105.5,46.29a5.5,5.5,0,0,0-4.12-.87L32.47,58.33C25,59.74,20.4,67.84,22.81,75.46l5,15.8a6.34,6.34,0,0,1-.61,5.17L7.75,128.51a6.29,6.29,0,0,0-.9,3.26h0a6,6,0,0,0,4.91,6l72.05,11.12a5.45,5.45,0,0,0,1.64,0l90.79-10.24a12.42,12.42,0,0,0,8.82-5.27h0c.41-.59.87-1.14,1.33-1.68A21,21,0,0,0,191,114.59l0-.17A26.87,26.87,0,0,0,179.72,96.71Z"/><polygon
            class="cls-3"
            points="194.01 104.99 190.85 89 184.37 69 174.37 54 157.37 44 117.85 22 96.37 14 85.37 14 60.85 19 13.85 37 6.85 45 4.85 56 10.85 77 10.28 88.39 9.85 97 0.85 108 6.85 97 9.5 85.68 3.85 64 0.85 54 3.85 45 9.85 35 43.35 22.5 80.37 9 98.85 8 145.77 32 176.37 47 188.37 59 192.04 75.09 194.01 104.99"/></g>
        <g id="Rock2"><path
            class="cls-1"
            d="M365.37,229l-20-23.73a39.77,39.77,0,0,1-9.2-38.29l19.48-67.22c3.09-10.65,13.89-17.66,23.74-22.75l53-28c12.77-6.6,23.88-2,30,11l7.47,9a25.36,25.36,0,0,0,19.62,14.34h0a25.36,25.36,0,0,1,17.13,40.12l-31.38,42.86a25.36,25.36,0,0,1-3.82,4.16L404.11,229C392.89,238.75,375.55,239.84,365.37,229Z"/><path
            class="cls-2"
            d="M371.87,203.18l14-88.62a5.5,5.5,0,0,1,2.18-3.6l39.82,3.73c13.27-5.37,21.26-61.53,25.16-54.56l18.81,28.56a6.34,6.34,0,0,0,4.19,3.1l36.69,7.78a6.29,6.29,0,0,1,3,1.57h0a6,6,0,0,1,1,7.68L475.54,169a5.45,5.45,0,0,1-1.12,1.2l-69.61,59.18a12.42,12.42,0,0,1-9.87,2.82h0c-.71-.11-1.42-.15-2.14-.18a21,21,0,0,1-15.6-8.36l-.1-.14A26.87,26.87,0,0,1,371.87,203.18Z"/><polygon
            class="cls-3"
            points="364.12 225.27 354.63 212.02 341.33 194.04 337.24 176.48 342.27 156.52 359.37 115 365.37 94 373.37 86 396.37 71 436.37 51 446.37 51 456.37 56 469.08 72.58 477.78 79.96 484.35 85.53 498.53 86.5 486.4 83.35 476.33 77.53 464.4 58.57 459.16 49.54 450.55 45.57 439.15 43.1 407.11 58.97 372.34 77.17 358.55 89.5 343.93 140.14 334.8 173.86 335.5 188.57 343.68 203.36 364.12 225.27"/></g>
        <g id="Rock_2" data-name="Rock 2"><path
            id="backhela_Juan_car"
            data-name="backhela Juan car"
            class="cls-1"
            d="M179.26,231H335a29,29,0,0,0,12.21-2.69l7.76-3.61a28.19,28.19,0,0,0,15.87-31.32L351.37,115c-2.36-11.26-8.48-20.58-19.94-22.68L207,69.48a29,29,0,0,0-22.72,5.39L116.37,129c-7.05,5.36-7,5.22-7,14l-3,7c0,6.92-.43,13.79,4.22,19l47.22,52.52A28.83,28.83,0,0,0,179.26,231Z"/><path
            class="cls-2"
            d="M163.47,225.81l19.27-102.43a4.38,4.38,0,0,1,4.08-3.56L249.37,145c2.5-.13,43,8.49,43,11l27,62.42a4.38,4.38,0,0,0,2.25,3.83l2.16,1.2a4.38,4.38,0,0,0,6.27-2.43l21.15-62.66a4.38,4.38,0,0,1,8.3,0l11.08,33.24a4.38,4.38,0,0,1-.86,4.26L340.36,229.5a4.38,4.38,0,0,1-3.3,1.5H167.77a4.38,4.38,0,0,1-4.38-4.4h0A4.38,4.38,0,0,1,163.47,225.81Z"/><polygon
            class="cls-3"
            points="136.41 198.87 111.78 171.12 101.64 154 106.43 131.37 119.03 118.5 145.25 99.98 182.03 72 198.87 65.86 229.54 70.97 274.12 79.26 304 84.82 339.37 92 349.37 101 357.37 129 359.37 147.93 359.37 154 349.03 125 342.03 104 332.03 96 306.03 90 202.03 74 189.03 78 184.03 91 168.03 98 134.03 119 115.03 141 108.03 154 115.03 168 136.41 198.87"/></g>
        <g id="Rock_3" data-name="Rock 3"><path
            id="backhela_Juan_car-2"
            data-name="backhela Juan car"
            class="cls-1"
            d="M476.26,213H632a28.67,28.67,0,0,0,12.21-2.73l7.76-3.65a28.67,28.67,0,0,0,15.87-31.74L648.37,98c-2.36-11.41-5.55-19.87-17-22l-126-22c-8-1.49-15.55,1-22,6l-64,52c-7.05,5.43-10,13.1-10,22l-1,5c0,7-1.65,5.75,3,11l43.45,53.36A28.67,28.67,0,0,0,476.26,213Z"/><path
            class="cls-2"
            d="M460.47,207.81l19.27-102.43a4.38,4.38,0,0,1,4.08-3.56l128-6.59c2.5-.13-25.4,52.26-25.4,54.76l30,50.42a4.38,4.38,0,0,0,2.25,3.83l2.16,1.2a4.38,4.38,0,0,0,6.27-2.43l21.15-62.66a4.38,4.38,0,0,1,8.3,0l11.08,33.24a4.38,4.38,0,0,1-.86,4.26L637.36,211.5a4.38,4.38,0,0,1-3.3,1.5H464.77a4.38,4.38,0,0,1-4.38-4.4h0A4.38,4.38,0,0,1,460.47,207.81Z"/><polygon
            class="cls-3"
            points="435.75 181.87 411.13 154.12 400.99 137 405.78 114.36 418.37 101.5 444.6 82.98 481.37 55 498.21 48.85 528.89 53.97 573.47 62.26 603.35 67.82 634.33 74.25 646.75 84.33 654.42 110.1 658.72 130.93 658.72 137 648.37 108 641.37 87 631.37 79 605.37 73 501.37 57 488.37 61 483.37 74 467.37 81 433.37 102 414.37 124 407.37 137 414.37 151 435.75 181.87"/></g>
    </g>
</svg>
